<svg id="Layer_1" data-name="Layer 1" xmlns="http://www.w3.org/2000/svg" xmlns:xlink="http://www.w3.org/1999/xlink" viewBox="0 0 81.1 81.1"><defs><style>.cls-1{fill:url(#linear-gradient);}.cls-2{isolation:isolate;}.cls-3{fill:#ec008c;}.cls-4{fill:#662d91;}</style><linearGradient id="linear-gradient" x1="-1585.38" y1="89.01" x2="-1637.26" y2="140.89" gradientTransform="translate(-1575.46 155.53) rotate(180)" gradientUnits="userSpaceOnUse"><stop offset="0" stop-color="#662d91"/><stop offset="0.38" stop-color="#92278f"/><stop offset="1" stop-color="#ec008c"/></linearGradient></defs><title>BeatMods</title><g id="Techbox_Logo" data-name="Techbox Logo"><path class="cls-1" d="M3.4,59.8,21.9,72.2c13.3,8.9,13.3,8.9,13.9,8.9s.7,0,14-8.9L68.3,59.8a7.63,7.63,0,0,0,3.4-6.5V27.8a8,8,0,0,0-3.4-6.5c-3.9-2.6-11.6-7.9-18.5-12.4C37.1.3,36.6,0,36,0h-.1c-.8,0-.8,0-14,8.9C15.1,13.5,7.3,18.7,3.4,21.3A8,8,0,0,0,0,27.8V53.4A7.69,7.69,0,0,0,3.4,59.8ZM35.9,4.9c3.8,2.5,16,10.8,28.4,19l-3.5,2.4L49.9,19C37.1,10.4,36.6,10.1,36,10.1h0c-.8,0-.8,0-14,8.9L11.2,26.3,7.8,23.8C19.9,15.7,32.1,7.5,35.9,4.9Zm9.3,32c-8.2-5.5-8.6-5.7-9.2-5.7h-.1c-.7,0-.8,0-9.3,5.7l-3.9-2.6c7.9-5.3,11.6-7.8,13.2-8.8,1.6,1.1,5.3,3.6,13.2,8.9Zm-4,2.7L36,43.1l-5.2-3.5L36,36.1Zm12-8L50,29.4c-12.8-8.6-13.3-8.9-13.9-8.9H36c-.8,0-.8,0-14,8.9l-3.2,2.2-3.6-2.4C28.5,20.3,34,16.6,36,15.2c2.1,1.4,7.6,5.1,20.8,14ZM4.5,29.2V27.4L21.9,39.1C35.2,48,35.2,48,35.8,48s.7,0,14-8.9L67.2,27.4v3.7a3.19,3.19,0,0,1-1.4,2.7L35.8,54c-2.5-1.7-9.9-6.6-30-20.1a3.28,3.28,0,0,1-1.5-2.7Zm0,9.1L21.9,50c13.3,8.9,13.3,8.9,13.9,8.9s.7,0,14-8.9L67.2,38.3v4.2a3.19,3.19,0,0,1-1.4,2.7c-12.8,8.6-26,17.5-30,20.1-4-2.6-17.1-11.5-30-20.1a3.32,3.32,0,0,1-1.4-2.7V38.3Zm0,11.4L21.9,61.4c13.3,8.9,13.3,8.9,13.9,8.9s.7,0,14-8.9L67.2,49.7v3.7a3.19,3.19,0,0,1-1.4,2.7c-20.1,13.5-27.4,18.5-30,20.1-2.5-1.7-9.9-6.6-30-20.1a3.28,3.28,0,0,1-1.5-2.7Z"/></g></svg>